<svg width="150" height="75" viewBox="0 0 150 75" fill="none" xmlns="http://www.w3.org/2000/svg">
<path d="M67.1743 0.0544661C35.4759 1.88859 9.85391 13.0554 2.18261 28.3554C0.46989 31.7919 0 33.7184 0 37.526C0 41.3336 0.4454 43.2374 2.18261 46.6966C8.63556 59.6975 28.5776 70.007 54.3878 73.7207C61.7086 74.7885 65.0162 74.9975 74.6834 74.9975C84.1149 75.0202 86.3679 74.9051 93.6887 73.9767C110.863 71.7715 125.973 66.5009 136.649 58.9781C139.089 57.2606 143.547 53.035 145.049 51.0146C151.618 42.2393 151.643 32.7657 145.167 24.2449C143.384 21.8534 139.277 17.9292 136.649 16.0724C124.775 7.6454 108 2.32932 87.2342 0.378579C84.6307 0.124134 69.9891 -0.109105 67.1743 0.0544661ZM74.7997 9.01607C74.6589 9.4568 72.8054 19.0681 72.8054 19.3938C72.8054 19.5801 74.4002 19.6497 78.4134 19.6497C82.3547 19.6497 84.5603 19.7421 85.8046 19.9981C91.0606 20.9734 93.2188 23.5043 92.9142 28.2175C92.7963 29.7957 90.9902 39.6403 89.2071 48.1384L88.9729 49.3683H84.4424H79.9379L81.744 40.128C82.823 34.7649 83.5746 30.3076 83.5975 29.4489C83.5975 28.1252 83.5271 27.8934 82.9409 27.3134C81.9322 26.338 80.8761 26.1517 75.9262 26.1517H71.4217L71.1875 27.3588C70.5539 30.447 66.9402 49.0199 66.9402 49.182C66.9402 49.2744 64.9458 49.3683 62.4816 49.3683C60.0418 49.3683 58.023 49.2986 58.023 49.2062C58.023 48.9972 65.7892 9.38864 65.8825 9.01758C65.9529 8.80857 67.0794 8.7389 70.4345 8.7389C73.9074 8.73739 74.8701 8.80706 74.7997 9.01607ZM50.468 20.0208C55.0904 20.9492 58.1408 23.5724 59.3132 27.636C59.9699 29.8411 59.7127 34.2061 58.7729 37.0156C57.8347 39.8947 56.4266 42.1469 54.2914 44.2597C52.2037 46.3255 50.3731 47.4872 47.9333 48.299C45.212 49.2047 43.5696 49.3667 37.4458 49.3667C32.2601 49.3667 31.7673 49.3895 31.651 49.762C31.5806 49.9938 31.0877 52.4549 30.5474 55.2175L29.5862 60.2791H25.1521C22.7124 60.2791 20.718 60.2094 20.718 60.0928C20.695 60.0004 22.4782 50.8752 24.6363 39.8008L28.5776 19.6482H38.6197C46.8543 19.6482 48.9894 19.7179 50.468 20.0208ZM120.552 19.9966C127.146 21.3657 130.524 26.3122 129.633 33.2761C129.304 35.8766 128.343 38.8012 127.216 40.7293C125.996 42.7724 122.289 46.3013 120.27 47.3463C117.104 48.9714 115.766 49.2032 108.398 49.3198C103.142 49.3895 101.851 49.4818 101.733 49.7378C101.663 49.8999 101.17 52.3156 100.63 55.1008L99.6212 60.1625L95.0937 60.2321L90.5892 60.2791L90.7071 59.7687C90.7775 59.4673 92.5377 50.5511 94.6254 39.9644C96.7131 29.355 98.4733 20.4615 98.5437 20.1601L98.6615 19.6497H108.797C116.774 19.6482 119.262 19.7179 120.552 19.9966Z" fill="#219BA3"/>
<path d="M36.3667 26.0806C36.2963 26.1972 35.5448 29.8654 34.7014 34.2758C33.8336 38.6877 33.0591 42.4711 32.9887 42.727C32.8708 43.145 33.0361 43.145 37.282 43.0284C42.0681 42.9118 43.6171 42.6331 45.6589 41.5199C48.3803 40.0811 50.2812 36.0403 50.3042 31.6753C50.3272 28.0995 49.0139 26.7076 45.0022 26.1502C43.0768 25.8943 36.5075 25.8473 36.3667 26.0806Z" fill="#219BA3"/>
<path d="M106.262 26.4047C105.91 27.9374 103.071 42.6104 103.071 42.8648C103.071 43.2828 111.401 43.0269 113.09 42.5634C117.009 41.4714 119.096 39.0345 120.059 34.4378C120.763 31.1179 120.457 29.1445 119.05 27.7511C117.69 26.4047 116.399 26.126 111.003 25.9866L106.38 25.8473L106.262 26.4047Z" fill="#219BA3"/>
</svg>
